<?xml version="1.0" encoding="UTF-8" standalone="no"?>
<!DOCTYPE svg PUBLIC "-//W3C//DTD SVG 1.0//EN"
 "http://www.w3.org/TR/2001/REC-SVG-20010904/DTD/svg10.dtd" [
 <!ATTLIST svg xmlns:xlink CDATA #FIXED "http://www.w3.org/1999/xlink">
]>
<!-- Generated by dot version 2.8 (Fri Dec  8 11:26:38 UTC 2006)
     For user: (azatoth) Carl Furstenberg,,, -->
<!-- Title: Version Pages: 1 -->
<svg width="176pt" height="938pt"
 viewBox = "0 0 176 938"
 xmlns="http://www.w3.org/2000/svg" xmlns:xlink="http://www.w3.org/1999/xlink">
<g id="graph0" class="graph" style="font-family:Times-Roman;font-size:14.00;">
<title>Version</title>
<polygon style="fill:white;stroke:white;" points="-2,940 -2,-2 178,-2 178,940 -2,940"/>
<g id="graph3" class="cluster"><title>clusterX</title>
<polygon style="fill:#ffe4c5;stroke:gray;" points="12,252 100,252 100,12 12,12 12,252"/>
<text text-anchor="middle" x="56" y="29">Beta version</text>
</g>
<!-- v09 -->
<g id="node2" class="node"><title>v09</title>
<polygon style="fill:#7ec2ee;stroke:black;" points="83,70 83,56 67,45 45,45 29,56 29,70 45,81 67,81 83,70"/>
<text text-anchor="middle" x="56" y="68">0.9</text>
</g>
<!-- v10 -->
<g id="node3" class="node"><title>v10</title>
<polygon style="fill:#7ec2ee;stroke:black;" points="107,300 107,286 91,275 69,275 53,286 53,300 69,311 91,311 107,300"/>
<polygon style="fill:none;stroke:black;" points="111,302 111,284 92,271 68,271 49,284 49,302 68,315 92,315 111,302"/>
<text text-anchor="middle" x="80" y="298">1.0</text>
</g>
<!-- v09&#45;&gt;v10 -->
<g id="edge5" class="edge"><title>v09&#45;&gt;v10</title>
<path style="fill:none;stroke:red;stroke-width:3;stroke-dasharray:5,2;" d="M75,77C86,87 98,102 98,118 98,118 98,118 98,226 98,237 96,250 92,261"/>
<polygon style="fill:red;stroke:red;" points="95,262 89,271 89,260 95,262"/>
</g>
<!-- v091 -->
<g id="node9" class="node"><title>v091</title>
<polygon style="fill:floralwhite;stroke:black;" points="76,100 22,100 22,136 76,136 76,100"/>
<text text-anchor="middle" x="49" y="123">0.9.1</text>
</g>
<!-- v09&#45;&gt;v091 -->
<g id="edge19" class="edge"><title>v09&#45;&gt;v091</title>
<path style="fill:none;stroke:#009acd;" d="M54,82C54,85 53,87 53,90"/>
<polygon style="fill:#009acd;stroke:#009acd;" points="56,90 52,100 50,90 56,90"/>
</g>
<!-- v11 -->
<g id="node4" class="node"><title>v11</title>
<polygon style="fill:#7ec2ee;stroke:black;" points="96,468 96,454 80,443 58,443 42,454 42,468 58,479 80,479 96,468"/>
<text text-anchor="middle" x="69" y="466">1.1</text>
</g>
<!-- v10&#45;&gt;v11 -->
<g id="edge7" class="edge"><title>v10&#45;&gt;v11</title>
<path style="fill:none;stroke:red;stroke-width:3;stroke-dasharray:5,2;" d="M61,311C55,318 49,326 46,334 33,372 36,386 46,424 47,428 49,432 51,435"/>
<polygon style="fill:red;stroke:red;" points="54,434 56,444 48,437 54,434"/>
</g>
<!-- v20 -->
<g id="node5" class="node"><title>v20</title>
<polygon style="fill:#7ec2ee;stroke:black;" points="126,582 126,568 110,557 88,557 72,568 72,582 88,593 110,593 126,582"/>
<polygon style="fill:none;stroke:black;" points="130,584 130,566 111,553 87,553 68,566 68,584 87,597 111,597 130,584"/>
<text text-anchor="middle" x="99" y="580">2.0</text>
</g>
<!-- v10&#45;&gt;v20 -->
<g id="edge16" class="edge"><title>v10&#45;&gt;v20</title>
<path style="fill:none;stroke:#9bcd9b;stroke-width:3;stroke-dasharray:5,2;" d="M103,309C116,319 129,334 129,352 129,352 129,352 129,516 129,526 125,537 120,546"/>
<polygon style="fill:#9bcd9b;stroke:#9bcd9b;" points="123,548 115,555 117,545 123,548"/>
</g>
<!-- v101 -->
<g id="node12" class="node"><title>v101</title>
<polygon style="fill:floralwhite;stroke:black;" points="107,334 53,334 53,370 107,370 107,334"/>
<text text-anchor="middle" x="80" y="357">1.0.1</text>
</g>
<!-- v10&#45;&gt;v101 -->
<g id="edge23" class="edge"><title>v10&#45;&gt;v101</title>
<path style="fill:none;stroke:#009acd;" d="M80,316C80,319 80,321 80,324"/>
<polygon style="fill:#009acd;stroke:#009acd;" points="84,324 80,334 77,324 84,324"/>
</g>
<!-- v11&#45;&gt;v20 -->
<g id="edge9" class="edge"><title>v11&#45;&gt;v20</title>
<path style="fill:none;stroke:red;stroke-width:3;stroke-dasharray:5,2;" d="M77,480C80,485 82,492 84,498 88,512 91,528 93,542"/>
<polygon style="fill:red;stroke:red;" points="96,542 95,552 90,543 96,542"/>
</g>
<!-- v111 -->
<g id="node14" class="node"><title>v111</title>
<polygon style="fill:floralwhite;stroke:black;" points="77,498 23,498 23,534 77,534 77,498"/>
<text text-anchor="middle" x="50" y="521">1.1.1</text>
</g>
<!-- v11&#45;&gt;v111 -->
<g id="edge26" class="edge"><title>v11&#45;&gt;v111</title>
<path style="fill:none;stroke:#009acd;" d="M63,480C62,483 61,486 60,488"/>
<polygon style="fill:#009acd;stroke:#009acd;" points="63,489 57,498 57,487 63,489"/>
</g>
<!-- v21 -->
<g id="node6" class="node"><title>v21</title>
<polygon style="fill:#7ec2ee;stroke:black;" points="133,750 133,736 117,725 95,725 79,736 79,750 95,761 117,761 133,750"/>
<text text-anchor="middle" x="106" y="748">2.1</text>
</g>
<!-- v20&#45;&gt;v21 -->
<g id="edge11" class="edge"><title>v20&#45;&gt;v21</title>
<path style="fill:none;stroke:red;stroke-width:3;stroke-dasharray:5,2;" d="M100,598C101,624 102,668 104,706 104,709 104,711 104,714"/>
<polygon style="fill:red;stroke:red;" points="107,714 105,724 101,714 107,714"/>
</g>
<!-- v201 -->
<g id="node15" class="node"><title>v201</title>
<polygon style="fill:floralwhite;stroke:black;" points="165,616 111,616 111,652 165,652 165,616"/>
<text text-anchor="middle" x="138" y="639">2.0.1</text>
</g>
<!-- v20&#45;&gt;v201 -->
<g id="edge28" class="edge"><title>v20&#45;&gt;v201</title>
<path style="fill:none;stroke:#009acd;" d="M113,596C115,600 118,604 120,608"/>
<polygon style="fill:#009acd;stroke:#009acd;" points="123,606 126,616 117,610 123,606"/>
</g>
<!-- v22 -->
<g id="node7" class="node"><title>v22</title>
<polygon style="fill:#7ec2ee;stroke:black;" points="140,914 140,900 124,889 102,889 86,900 86,914 102,925 124,925 140,914"/>
<text text-anchor="middle" x="113" y="912">2.2</text>
</g>
<!-- v21&#45;&gt;v22 -->
<g id="edge13" class="edge"><title>v21&#45;&gt;v22</title>
<path style="fill:none;stroke:red;stroke-width:3;stroke-dasharray:5,2;" d="M107,762C107,786 109,832 111,870 111,873 111,875 111,878"/>
<polygon style="fill:red;stroke:red;" points="114,878 112,888 108,878 114,878"/>
</g>
<!-- v211 -->
<g id="node17" class="node"><title>v211</title>
<polygon style="fill:floralwhite;stroke:black;" points="172,780 118,780 118,816 172,816 172,780"/>
<text text-anchor="middle" x="145" y="803">2.1.1</text>
</g>
<!-- v21&#45;&gt;v211 -->
<g id="edge31" class="edge"><title>v21&#45;&gt;v211</title>
<path style="fill:none;stroke:#009acd;" d="M119,761C121,764 124,768 126,772"/>
<polygon style="fill:#009acd;stroke:#009acd;" points="129,770 132,780 123,774 129,770"/>
</g>
<!-- v092 -->
<g id="node10" class="node"><title>v092</title>
<polygon style="fill:floralwhite;stroke:black;" points="76,154 22,154 22,190 76,190 76,154"/>
<text text-anchor="middle" x="49" y="177">0.9.2</text>
</g>
<!-- v091&#45;&gt;v092 -->
<g id="edge20" class="edge"><title>v091&#45;&gt;v092</title>
<path style="fill:none;stroke:#009acd;" d="M49,136C49,139 49,141 49,144"/>
<polygon style="fill:#009acd;stroke:#009acd;" points="53,144 49,154 46,144 53,144"/>
</g>
<!-- v093 -->
<g id="node11" class="node"><title>v093</title>
<polygon style="fill:floralwhite;stroke:black;" points="76,208 22,208 22,244 76,244 76,208"/>
<text text-anchor="middle" x="49" y="231">0.9.3</text>
</g>
<!-- v092&#45;&gt;v093 -->
<g id="edge21" class="edge"><title>v092&#45;&gt;v093</title>
<path style="fill:none;stroke:#009acd;" d="M49,190C49,193 49,195 49,198"/>
<polygon style="fill:#009acd;stroke:#009acd;" points="53,198 49,208 46,198 53,198"/>
</g>
<!-- v093&#45;&gt;v10 -->
<g id="edge35" class="edge"><title>v093&#45;&gt;v10</title>
<path style="fill:none;stroke:#27418a;stroke-width:3;" d="M57,244C60,249 63,255 65,261"/>
<polygon style="fill:#27418a;stroke:#27418a;" points="68,260 70,270 62,263 68,260"/>
</g>
<!-- v102 -->
<g id="node13" class="node"><title>v102</title>
<polygon style="fill:floralwhite;stroke:black;" points="107,388 53,388 53,424 107,424 107,388"/>
<text text-anchor="middle" x="80" y="411">1.0.2</text>
</g>
<!-- v101&#45;&gt;v102 -->
<g id="edge24" class="edge"><title>v101&#45;&gt;v102</title>
<path style="fill:none;stroke:#009acd;" d="M80,370C80,373 80,375 80,378"/>
<polygon style="fill:#009acd;stroke:#009acd;" points="84,378 80,388 77,378 84,378"/>
</g>
<!-- v102&#45;&gt;v11 -->
<g id="edge37" class="edge"><title>v102&#45;&gt;v11</title>
<path style="fill:none;stroke:#27418a;stroke-width:3;" d="M76,424C76,427 75,429 75,432"/>
<polygon style="fill:#27418a;stroke:#27418a;" points="78,433 73,442 72,432 78,433"/>
</g>
<!-- v111&#45;&gt;v20 -->
<g id="edge39" class="edge"><title>v111&#45;&gt;v20</title>
<path style="fill:none;stroke:#27418a;stroke-width:3;" d="M65,534C68,538 72,543 76,547"/>
<polygon style="fill:#27418a;stroke:#27418a;" points="79,545 83,555 74,550 79,545"/>
</g>
<!-- v202 -->
<g id="node16" class="node"><title>v202</title>
<polygon style="fill:floralwhite;stroke:black;" points="165,670 111,670 111,706 165,706 165,670"/>
<text text-anchor="middle" x="138" y="693">2.0.2</text>
</g>
<!-- v201&#45;&gt;v202 -->
<g id="edge29" class="edge"><title>v201&#45;&gt;v202</title>
<path style="fill:none;stroke:#009acd;" d="M138,652C138,655 138,657 138,660"/>
<polygon style="fill:#009acd;stroke:#009acd;" points="142,660 138,670 135,660 142,660"/>
</g>
<!-- v202&#45;&gt;v21 -->
<g id="edge41" class="edge"><title>v202&#45;&gt;v21</title>
<path style="fill:none;stroke:#27418a;stroke-width:3;" d="M128,706C126,709 124,712 122,715"/>
<polygon style="fill:#27418a;stroke:#27418a;" points="125,717 117,724 119,714 125,717"/>
</g>
<!-- v212 -->
<g id="node18" class="node"><title>v212</title>
<polygon style="fill:floralwhite;stroke:black;" points="172,834 118,834 118,870 172,870 172,834"/>
<text text-anchor="middle" x="145" y="857">2.1.2</text>
</g>
<!-- v211&#45;&gt;v212 -->
<g id="edge32" class="edge"><title>v211&#45;&gt;v212</title>
<path style="fill:none;stroke:#009acd;" d="M145,816C145,819 145,821 145,824"/>
<polygon style="fill:#009acd;stroke:#009acd;" points="149,824 145,834 142,824 149,824"/>
</g>
<!-- v212&#45;&gt;v22 -->
<g id="edge43" class="edge"><title>v212&#45;&gt;v22</title>
<path style="fill:none;stroke:#27418a;stroke-width:3;" d="M135,870C133,873 131,876 129,879"/>
<polygon style="fill:#27418a;stroke:#27418a;" points="132,881 124,888 126,878 132,881"/>
</g>
</g>
</svg>
